<?xml version="1.0" encoding="UTF-8"?>
<svg xmlns="http://www.w3.org/2000/svg" xmlns:xlink="http://www.w3.org/1999/xlink" width="30px" height="30px" viewBox="0 0 30 30" version="1.1">
<g id="surface1">
<path style="fill-rule:nonzero;fill:rgb(100%,100%,100%);fill-opacity:1;stroke-width:1;stroke-linecap:butt;stroke-linejoin:miter;stroke:rgb(100%,100%,100%);stroke-opacity:1;stroke-miterlimit:4;" d="M 26.066667 3.995833 C 25.733333 4.0125 25.416667 4.108333 25.1375 4.216667 L 25.133333 4.216667 C 24.845833 4.333333 23.491667 4.904167 21.433333 5.766667 C 19.375 6.633333 16.704167 7.758333 14.05 8.875 C 8.754167 11.108333 3.545833 13.3 3.545833 13.3 L 3.608333 13.279167 C 3.608333 13.279167 3.25 13.391667 2.875 13.654167 C 2.683333 13.779167 2.470833 13.95 2.2875 14.216667 C 2.104167 14.4875 1.958333 14.904167 2.0125 15.329167 C 2.104167 16.05 2.566667 16.483333 2.904167 16.720833 C 3.245833 16.9625 3.566667 17.079167 3.566667 17.079167 L 3.579167 17.079167 L 8.4625 18.720833 C 8.679167 19.425 9.95 23.595833 10.254167 24.558333 C 10.433333 25.133333 10.608333 25.491667 10.829167 25.766667 C 10.933333 25.908333 11.058333 26.020833 11.208333 26.116667 C 11.266667 26.154167 11.329167 26.183333 11.391667 26.204167 C 11.4125 26.2125 11.429167 26.216667 11.454167 26.220833 L 11.404167 26.2125 C 11.416667 26.2125 11.429167 26.229167 11.441667 26.233333 C 11.483333 26.241667 11.508333 26.245833 11.558333 26.254167 C 12.333333 26.4875 12.954167 26.008333 12.954167 26.008333 L 12.9875 25.983333 L 15.870833 23.358333 L 20.704167 27.0625 L 20.8125 27.108333 C 21.816667 27.55 22.8375 27.308333 23.379167 26.870833 C 23.920833 26.433333 24.133333 25.875 24.133333 25.875 L 24.166667 25.7875 L 27.904167 6.658333 C 28.008333 6.183333 28.0375 5.741667 27.916667 5.3125 C 27.8 4.883333 27.5 4.483333 27.1375 4.266667 C 26.766667 4.045833 26.408333 3.979167 26.066667 3.995833 Z M 25.966667 6.045833 C 25.9625 6.108333 25.979167 6.104167 25.95 6.220833 L 25.95 6.233333 L 22.25 25.1625 C 22.233333 25.191667 22.208333 25.25 22.133333 25.308333 C 22.058333 25.370833 21.991667 25.4125 21.666667 25.283333 L 15.758333 20.75 L 12.1875 24.004167 L 12.9375 19.2125 C 12.9375 19.2125 22.191667 10.5875 22.591667 10.2125 C 22.991667 9.841667 22.858333 9.766667 22.858333 9.766667 C 22.8875 9.3125 22.258333 9.633333 22.258333 9.633333 L 10.083333 17.175 L 10.079167 17.158333 L 4.241667 15.191667 L 4.241667 15.1875 C 4.2375 15.1875 4.233333 15.183333 4.229167 15.183333 C 4.233333 15.183333 4.258333 15.170833 4.258333 15.170833 L 4.2875 15.158333 L 4.316667 15.141667 C 4.316667 15.141667 9.529167 12.95 14.829167 10.716667 C 17.483333 9.604167 20.154167 8.479167 22.208333 7.608333 C 24.2625 6.745833 25.783333 6.1125 25.866667 6.079167 C 25.95 6.045833 25.9125 6.045833 25.966667 6.045833 Z M 25.966667 6.045833 " transform="matrix(0.9375,0,0,0.9375,0,0)"/>
</g>
</svg>
